<svg width="81" height="14" viewBox="0 0 81 14" fill="none" xmlns="http://www.w3.org/2000/svg">
<path d="M0.0244141 11L1.61035 1.01953H6.55273L6.16992 3.43945H4.0166L3.80469 4.71094H5.75293L5.39062 7.04883H3.44238L3.2168 8.42285H5.37695L4.9668 11H0.0244141ZM20.7564 3.58301C20.5924 3.49642 20.4374 3.4349 20.2916 3.39844C20.1458 3.36198 19.9977 3.34375 19.8473 3.34375C19.1956 3.34375 18.6715 3.65592 18.275 4.28027C17.8785 4.90007 17.6803 5.72493 17.6803 6.75488C17.6803 7.41569 17.7988 7.9056 18.0357 8.22461C18.2773 8.54362 18.6441 8.70312 19.1363 8.70312C19.2548 8.70312 19.3824 8.69173 19.5191 8.66895C19.6604 8.6416 19.8085 8.60286 19.9635 8.55273L19.5396 10.959C19.3482 11.0365 19.1409 11.0934 18.9176 11.1299C18.6943 11.1663 18.4391 11.1846 18.152 11.1846C17.0263 11.1846 16.165 10.8564 15.568 10.2002C14.9755 9.54395 14.6793 8.59147 14.6793 7.34277C14.6793 5.3877 15.1305 3.81543 16.0328 2.62598C16.9352 1.43197 18.1314 0.834961 19.6217 0.834961C19.8951 0.834961 20.1617 0.860026 20.4215 0.910156C20.6812 0.955729 20.9387 1.02409 21.1939 1.11523L20.7564 3.58301ZM29.1086 8.63477L29.4777 6.36523H33.3947L33.0324 8.63477H29.1086ZM45.9168 5.98926C45.6616 5.98926 45.4406 6.20345 45.2537 6.63184C45.0714 7.06022 44.9803 7.57292 44.9803 8.16992C44.9803 8.4388 45.019 8.64388 45.0965 8.78516C45.1785 8.92643 45.2947 8.99707 45.4451 8.99707C45.6958 8.99707 45.9122 8.7806 46.0945 8.34766C46.2768 7.91471 46.368 7.39518 46.368 6.78906C46.368 6.52474 46.3292 6.3265 46.2518 6.19434C46.1788 6.05762 46.0672 5.98926 45.9168 5.98926ZM45.8074 11L45.9168 10.2275C45.6115 10.5648 45.313 10.8109 45.0213 10.9658C44.7342 11.1208 44.4311 11.1982 44.1121 11.1982C43.5607 11.1982 43.13 10.984 42.8201 10.5557C42.5148 10.1273 42.3621 9.52799 42.3621 8.75781C42.3621 7.34505 42.6424 6.16699 43.2029 5.22363C43.7635 4.27572 44.4585 3.80176 45.2879 3.80176C45.6115 3.80176 45.8917 3.87923 46.1287 4.03418C46.3702 4.18457 46.589 4.42611 46.785 4.75879L46.9148 4H49.4305L48.323 11H45.8074ZM57.2836 13.3926L58.767 4H61.0434L60.934 4.72461C61.2621 4.41471 61.5857 4.18457 61.9047 4.03418C62.2237 3.87923 62.5495 3.80176 62.8822 3.80176C63.4838 3.80176 63.9441 4.01823 64.2631 4.45117C64.5821 4.88411 64.7416 5.50846 64.7416 6.32422C64.7416 7.69596 64.4636 8.85124 63.9076 9.79004C63.3562 10.7288 62.6817 11.1982 61.8842 11.1982C61.5424 11.1982 61.2325 11.1413 60.9545 11.0273C60.6765 10.9134 60.4418 10.7448 60.2504 10.5215L59.7992 13.3926H57.2836ZM60.7084 8.21094C60.7084 8.48893 60.7494 8.69629 60.8314 8.83301C60.918 8.96973 61.0456 9.03809 61.2143 9.03809C61.474 9.03809 61.6905 8.82389 61.8637 8.39551C62.0368 7.96712 62.1234 7.43164 62.1234 6.78906C62.1234 6.51107 62.0824 6.30599 62.0004 6.17383C61.9184 6.04167 61.7908 5.97559 61.6176 5.97559C61.3624 5.97559 61.1459 6.18978 60.9682 6.61816C60.795 7.04655 60.7084 7.57747 60.7084 8.21094ZM72.8613 13.3926L74.3447 4H76.6211L76.5117 4.72461C76.8398 4.41471 77.1634 4.18457 77.4824 4.03418C77.8014 3.87923 78.1273 3.80176 78.46 3.80176C79.0615 3.80176 79.5218 4.01823 79.8408 4.45117C80.1598 4.88411 80.3193 5.50846 80.3193 6.32422C80.3193 7.69596 80.0413 8.85124 79.4854 9.79004C78.9339 10.7288 78.2594 11.1982 77.4619 11.1982C77.1201 11.1982 76.8102 11.1413 76.5322 11.0273C76.2542 10.9134 76.0195 10.7448 75.8281 10.5215L75.377 13.3926H72.8613ZM76.2861 8.21094C76.2861 8.48893 76.3271 8.69629 76.4092 8.83301C76.4958 8.96973 76.6234 9.03809 76.792 9.03809C77.0518 9.03809 77.2682 8.82389 77.4414 8.39551C77.6146 7.96712 77.7012 7.43164 77.7012 6.78906C77.7012 6.51107 77.6602 6.30599 77.5781 6.17383C77.4961 6.04167 77.3685 5.97559 77.1953 5.97559C76.9401 5.97559 76.7236 6.18978 76.5459 6.61816C76.3727 7.04655 76.2861 7.57747 76.2861 8.21094Z" fill="black"/>
</svg>
