<svg width="24" height="24" viewBox="0 0 24 24" fill="none" xmlns="http://www.w3.org/2000/svg">
<path d="M21.0846 2.9154C19.1458 0.975245 16.5868 -0.00181772 14.046 -0.000364592C11.5045 -0.00181772 8.94616 0.975245 7.00741 2.9154C5.06725 4.85415 4.08944 7.4132 4.09239 9.95326C4.09019 11.7279 4.57797 13.5048 5.52428 15.0795L0.704176 19.8995C-0.234074 20.8378 -0.234074 22.3583 0.704176 23.2965C1.64168 24.2348 3.16291 24.2348 4.10041 23.2965L8.92122 18.4757C10.4952 19.4227 12.2728 19.9098 14.046 19.9076C16.5867 19.9098 19.1458 18.9327 21.0845 16.9925C23.024 15.0538 24.0018 12.4954 23.9996 9.95321C24.0025 7.4132 23.024 4.85415 21.0846 2.9154ZM18.3665 14.2753C17.169 15.472 15.6163 16.0624 14.046 16.0653C12.4757 16.0624 10.9237 15.4721 9.72466 14.2753C8.52789 13.0763 7.93755 11.5243 7.9346 9.95326C7.93755 8.3837 8.52785 6.83096 9.72466 5.6327C10.9236 4.43593 12.4757 3.84559 14.046 3.84264C15.6163 3.84559 17.169 4.43589 18.3673 5.6327C19.5641 6.83096 20.1544 8.3837 20.1573 9.95326C20.1544 11.5243 19.564 13.0763 18.3665 14.2753Z" fill="white"/>
</svg>
